<svg width="38" height="33" viewBox="0 0 38 33" fill="none" xmlns="http://www.w3.org/2000/svg">
<path d="M2.32968 14.0432C2.32968 14.0432 19.1362 6.96459 24.965 4.47203C27.1994 3.47508 34.7769 0.284657 34.7769 0.284657C34.7769 0.284657 38.2742 -1.11108 37.9827 2.27865C37.8856 3.67447 37.1084 8.55972 36.3313 13.8438C35.1655 21.3213 33.9025 29.4967 33.9025 29.4967C33.9025 29.4967 33.7083 31.7899 32.0568 32.1886C30.4053 32.5874 27.6851 30.7929 27.1994 30.3939C26.8108 30.095 19.9134 25.6084 17.3875 23.415C16.7074 22.8168 15.9304 21.6205 17.4846 20.2247C20.982 16.9346 25.1592 12.8469 27.6851 10.2547C28.8509 9.05828 30.0166 6.26664 25.1592 9.65645C18.2619 14.5418 11.4616 19.1279 11.4616 19.1279C11.4616 19.1279 9.90715 20.1249 6.9928 19.2275C4.07827 18.3304 0.678083 17.1339 0.678083 17.1339C0.678083 17.1339 -1.65325 15.6384 2.32968 14.0432Z" fill="white"/>
</svg>
